<svg xmlns="http://www.w3.org/2000/svg" viewBox="0 0 24 24" fill="none">
  <path d="M12 2C6.477 2 2 6.477 2 12s4.477 10 10 10 10-4.477 10-10S17.523 2 12 2zm4.727 13.11c-.494.856-1.318 1.47-2.273 1.776-.478.153-.978.23-1.482.228a5.191 5.191 0 0 1-2.108-.45c-.263-.117-.263-.117-.396-.19l-.018-.01c-.905-.527-1.538-1.107-2.003-1.593a8.86 8.86 0 0 1-.317-.36c-.093-.112-.15-.185-.15-.185s.073.046.207.12c.283.157.776.398 1.392.568a5.134 5.134 0 0 0 1.575.196c1.064-.023 1.903-.353 2.506-.7.63-.363 1.039-.773 1.264-1.028a3.79 3.79 0 0 0 .553-.802 2.84 2.84 0 0 0 .293-1.18c.01-.34-.06-.72-.263-1.057-.203-.338-.524-.59-.87-.757a3.148 3.148 0 0 0-1.286-.323c-.39-.013-.756.04-1.073.118a5.2 5.2 0 0 0-.826.297c-.134.063-.25.124-.352.177l-.063.033c.026-.04.053-.08.082-.12.297-.42.734-.92 1.318-1.335.585-.414 1.32-.742 2.217-.818.898-.076 1.622.12 2.19.44a3.14 3.14 0 0 1 1.317 1.373c.28.554.38 1.15.34 1.717a4.175 4.175 0 0 1-.481 1.756z" fill="currentColor"/>
</svg>
