<svg xmlns="http://www.w3.org/2000/svg" viewBox="0 0 24 24" fill="none">
  <path d="M6.915 4.03c-1.968 0-3.402 1.312-4.357 3.09C1.58 9.05 1 11.387 1 12.644c0 2.503 1.312 4.356 3.726 4.356 1.399 0 2.601-.839 3.803-2.399.898-1.168 1.742-2.632 2.471-3.896.072-.126.144-.252.213-.374l.212.374c.732 1.264 1.573 2.728 2.471 3.896 1.202 1.56 2.404 2.399 3.803 2.399C20.19 17 21.5 15.147 21.5 12.644c0-1.257-.58-3.594-1.558-5.524C18.987 5.342 17.553 4.03 15.585 4.03c-1.399 0-2.601.839-3.803 2.399-.479.622-.95 1.34-1.409 2.1l-.373.63-.373-.63c-.459-.76-.93-1.478-1.409-2.1C7.016 4.869 6.814 4.03 6.915 4.03zm0 1.74c.548 0 1.273.516 2.182 1.697.478.622.955 1.38 1.418 2.186l1.075 1.87-1.075 1.87c-.463.806-.94 1.564-1.418 2.186-.909 1.181-1.634 1.697-2.182 1.697C5.28 15.276 4.5 14.161 4.5 12.644c0-1.057.465-3.079 1.313-4.663C6.594 6.419 7.382 5.77 6.915 5.77zM15.585 5.77c-.467 0 .321.649 1.102 2.211.848 1.584 1.313 3.606 1.313 4.663 0 1.517-.78 2.632-2.415 2.632-.548 0-1.273-.516-2.182-1.697a22.263 22.263 0 0 1-1.418-2.186l-1.075-1.87 1.075-1.87a22.263 22.263 0 0 1 1.418-2.186c.909-1.181 1.634-1.697 2.182-1.697z" fill="currentColor"/>
</svg>
