<svg xmlns="http://www.w3.org/2000/svg" viewBox="0 0 24 24" fill="none">
  <rect x="1" y="3" width="4" height="4" fill="#F7D046"/>
  <rect x="19" y="3" width="4" height="4" fill="#F7D046"/>
  <rect x="1" y="7" width="4" height="4" fill="#F2A73B"/>
  <rect x="5" y="7" width="4" height="4" fill="#F2A73B"/>
  <rect x="15" y="7" width="4" height="4" fill="#F2A73B"/>
  <rect x="19" y="7" width="4" height="4" fill="#F2A73B"/>
  <rect x="1" y="11" width="4" height="4" fill="#EE792F"/>
  <rect x="5" y="11" width="4" height="4" fill="#EE792F"/>
  <rect x="9" y="11" width="4" height="4" fill="#EE792F"/>
  <rect x="11" y="11" width="4" height="4" fill="#EE792F"/>
  <rect x="15" y="11" width="4" height="4" fill="#EE792F"/>
  <rect x="19" y="11" width="4" height="4" fill="#EE792F"/>
  <rect x="1" y="15" width="4" height="4" fill="#EB5829"/>
  <rect x="9" y="15" width="4" height="4" fill="#EB5829"/>
  <rect x="19" y="15" width="4" height="4" fill="#EB5829"/>
</svg>
